<?xml version="1.0" encoding="iso-8859-1"?>
<!-- Generator: Adobe Illustrator 19.0.0, SVG Export Plug-In . SVG Version: 6.00 Build 0)  -->
<svg version="1.1" id="Capa_1" xmlns="http://www.w3.org/2000/svg" xmlns:xlink="http://www.w3.org/1999/xlink"
	 viewBox="0 0 512 512" width="21" height="21" xml:space="preserve">
<g>
	<g>
		<path fill="white" d="M381.354,0H130.648c-24.813,0-45,20.187-45,45v422c0,24.813,20.187,45,45,45h250.705c24.813,0,45-20.187,45-45V45
			C426.354,20.187,406.167,0,381.354,0z M381.354,482H130.648c-8.271,0-15-6.729-15-15V45c0-8.271,6.729-15,15-15h250.705
			c8.271,0,15,6.729,15,15v422h0.001C396.354,475.271,389.625,482,381.354,482z"/>
	</g>
</g>
<g>
	<g>
		<path fill="white" d="M256.001,57.543c-35.578,0-64.523,28.945-64.523,64.523s28.945,64.524,64.523,64.524s64.523-28.945,64.523-64.523
			C320.524,86.489,291.579,57.543,256.001,57.543z M256.001,156.59c-19.036,0-34.523-15.487-34.523-34.523
			c0-19.036,15.487-34.524,34.523-34.524s34.523,15.487,34.523,34.523S275.037,156.59,256.001,156.59z"/>
	</g>
</g>
<g>
	<g>
		<path fill="white" d="M256.001,208.971c-65.208,0-118.258,53.05-118.258,118.258s53.05,118.257,118.258,118.257s118.258-53.05,118.258-118.257
			S321.209,208.971,256.001,208.971z M256.001,415.486c-48.665,0-88.258-39.592-88.258-88.257c0-48.666,39.593-88.258,88.258-88.258
			s88.258,39.592,88.258,88.258C344.259,375.894,304.666,415.486,256.001,415.486z"/>
	</g>
</g>
<g>
	<g>
		<path fill="white" d="M256.001,277.338c-27.51,0-49.891,22.381-49.891,49.891c0,27.509,22.381,49.89,49.891,49.89s49.891-22.381,49.891-49.89
			C305.892,299.719,283.511,277.338,256.001,277.338z M256.001,347.119c-10.968,0-19.891-8.923-19.891-19.89
			c0-10.968,8.923-19.891,19.891-19.891s19.891,8.923,19.891,19.891C275.892,338.196,266.969,347.119,256.001,347.119z"/>
	</g>
</g>
<g>
</g>
<g>
</g>
<g>
</g>
<g>
</g>
<g>
</g>
<g>
</g>
<g>
</g>
<g>
</g>
<g>
</g>
<g>
</g>
<g>
</g>
<g>
</g>
<g>
</g>
<g>
</g>
<g>
</g>
</svg>
